<?xml version="1.0" encoding="UTF-8"?>
<svg id="uuid-8d785316-2874-479a-9ebb-4c3d62a1f81c" data-name="Layer 1" xmlns="http://www.w3.org/2000/svg" viewBox="0 0 160.5 29.37">
  <defs>
    <style>
      .uuid-eb90da44-7577-4c59-9b94-8793effc2c8c {
        fill: #e95c3e;
      }

      .uuid-7c7804d8-7fb0-4ef7-9ae8-cb5c5a4691a5 {
        fill: #fff;
      }
    </style>
  </defs>
  <g>
    <path class="uuid-eb90da44-7577-4c59-9b94-8793effc2c8c" d="M95.67,7.14c-.17-.25-.41-.37-.73-.37-.4,0-.81,.21-.81,.68,0,1.02,1.94,.48,1.94,1.84,0,.69-.65,1.09-1.24,1.09-.46,0-.9-.17-1.19-.56l.35-.25c.16,.28,.46,.46,.86,.46s.81-.25,.81-.69c0-1.07-1.94-.48-1.94-1.86,0-.73,.61-1.07,1.22-1.07,.43,0,.77,.12,1.07,.46l-.34,.26Z"/>
    <path class="uuid-eb90da44-7577-4c59-9b94-8793effc2c8c" d="M97.24,10.3h-.38v-3.78h2.28v.35h-1.9v1.29h1.76v.35h-1.76v1.79Z"/>
    <path class="uuid-eb90da44-7577-4c59-9b94-8793effc2c8c" d="M100.21,10.3h-.38v-3.78h.38v3.78Z"/>
    <path class="uuid-eb90da44-7577-4c59-9b94-8793effc2c8c" d="M104.41,8.39c-.12-.18-.35-.33-.62-.33-.58-.01-.94,.42-.94,.99s.36,1,.94,.99c.28,0,.51-.15,.62-.33l.29,.22c-.25,.29-.58,.43-.91,.43-.82,.01-1.32-.56-1.32-1.31s.51-1.32,1.32-1.31c.34,0,.67,.14,.91,.43l-.29,.22Z"/>
    <path class="uuid-eb90da44-7577-4c59-9b94-8793effc2c8c" d="M105.41,9.15c.04,.5,.42,.9,.92,.9,.37,0,.66-.21,.8-.43l.27,.22c-.29,.37-.66,.53-1.07,.53-.74,0-1.29-.56-1.29-1.31s.55-1.31,1.26-1.31c.76,0,1.2,.57,1.2,1.25v.16h-2.08Zm1.7-.29c0-.48-.3-.8-.81-.8-.46,0-.88,.39-.88,.8h1.69Z"/>
    <path class="uuid-eb90da44-7577-4c59-9b94-8793effc2c8c" d="M108.47,7.8c.02,.13,.02,.27,.02,.4h.01c.15-.27,.51-.46,.84-.46,.64,0,.94,.36,.94,.98v1.59h-.35v-1.38c0-.56-.15-.86-.68-.86-.07,0-.76,.05-.76,.96v1.28h-.35v-1.95c0-.13-.02-.37-.03-.55h.36Z"/>
    <path class="uuid-eb90da44-7577-4c59-9b94-8793effc2c8c" d="M112.39,8.12h-.72v1.47c0,.37,.14,.45,.36,.45,.12,0,.26-.04,.36-.1l.02,.33c-.13,.06-.3,.09-.48,.09-.27,0-.62-.12-.62-.67v-1.58h-.53v-.32h.53v-.7h.35v.7h.72v.32Z"/>
    <path class="uuid-eb90da44-7577-4c59-9b94-8793effc2c8c" d="M112.91,8.58c0-.22-.01-.42-.02-.78h.35v.46h.01c.1-.27,.36-.53,.8-.53,.1,0,.19,.01,.26,.03l-.07,.35s-.11-.03-.2-.03c-.53,0-.77,.46-.77,.8v1.41h-.35v-1.72Z"/>
    <path class="uuid-eb90da44-7577-4c59-9b94-8793effc2c8c" d="M114.79,9.15c.04,.5,.42,.9,.92,.9,.37,0,.66-.21,.8-.43l.27,.22c-.29,.37-.66,.53-1.07,.53-.74,0-1.29-.56-1.29-1.31s.55-1.31,1.26-1.31c.76,0,1.2,.57,1.2,1.25v.16h-2.08Zm1.7-.29c0-.48-.3-.8-.81-.8-.46,0-.88,.39-.88,.8h1.69Z"/>
    <path class="uuid-eb90da44-7577-4c59-9b94-8793effc2c8c" d="M120.17,8.12h-.59v2.18h-.35v-2.18h-.53v-.32h.53v-.68c0-.66,.33-.92,.84-.92,.1,0,.2,.02,.3,.04l-.06,.32c-.09-.02-.18-.04-.27-.04-.39,0-.45,.28-.45,.64v.64h.59v.32Z"/>
    <path class="uuid-eb90da44-7577-4c59-9b94-8793effc2c8c" d="M121.78,10.36c-.77,0-1.32-.56-1.32-1.31s.55-1.31,1.32-1.31,1.33,.56,1.33,1.31-.55,1.31-1.33,1.31Zm0-2.31c-.58,0-.94,.43-.94,.99s.36,.99,.94,.99,.95-.43,.95-.99-.36-.99-.95-.99Z"/>
    <path class="uuid-eb90da44-7577-4c59-9b94-8793effc2c8c" d="M123.79,8.58c0-.22-.01-.42-.02-.78h.35v.46h.01c.1-.27,.36-.53,.8-.53,.1,0,.19,.01,.26,.03l-.07,.35s-.11-.03-.2-.03c-.53,0-.77,.46-.77,.8v1.41h-.35v-1.72Z"/>
    <path class="uuid-eb90da44-7577-4c59-9b94-8793effc2c8c" d="M93.8,14.99c0-.22-.01-.42-.02-.78h.35v.46h.01c.1-.27,.36-.53,.8-.53,.1,0,.19,.01,.26,.03l-.07,.35s-.11-.03-.2-.03c-.53,0-.77,.46-.77,.8v1.41h-.35v-1.72Z"/>
    <path class="uuid-eb90da44-7577-4c59-9b94-8793effc2c8c" d="M95.68,15.55c.04,.5,.42,.9,.92,.9,.37,0,.66-.21,.8-.43l.27,.22c-.29,.37-.66,.53-1.07,.53-.74,0-1.29-.56-1.29-1.31s.55-1.31,1.26-1.31c.76,0,1.2,.57,1.2,1.25v.16h-2.08Zm1.7-.29c0-.48-.3-.8-.81-.8-.46,0-.88,.39-.88,.8h1.69Z"/>
    <path class="uuid-eb90da44-7577-4c59-9b94-8793effc2c8c" d="M99.73,14.8c-.11-.2-.28-.34-.54-.34s-.52,.11-.52,.37c0,.23,.17,.32,.49,.4l.36,.09c.35,.08,.61,.33,.61,.68,0,.54-.49,.77-.97,.77-.38,0-.73-.13-.96-.49l.3-.21c.14,.22,.36,.37,.66,.37s.59-.13,.59-.42c0-.25-.21-.34-.48-.4l-.34-.08c-.17-.04-.64-.18-.64-.66,0-.52,.45-.75,.92-.75,.35,0,.67,.12,.83,.45l-.32,.21Z"/>
    <path class="uuid-eb90da44-7577-4c59-9b94-8793effc2c8c" d="M100.92,15.55c.04,.5,.42,.9,.92,.9,.37,0,.66-.21,.8-.43l.27,.22c-.29,.37-.66,.53-1.07,.53-.74,0-1.29-.56-1.29-1.31s.55-1.31,1.26-1.31c.76,0,1.2,.57,1.2,1.25v.16h-2.08Zm1.7-.29c0-.48-.3-.8-.81-.8-.46,0-.88,.39-.88,.8h1.69Z"/>
    <path class="uuid-eb90da44-7577-4c59-9b94-8793effc2c8c" d="M105.25,15.18v-.06c0-.43-.21-.65-.64-.65-.29,0-.55,.1-.76,.29l-.21-.25c.23-.23,.59-.36,1.06-.36s.91,.28,.91,.89v1.12c0,.19,.02,.43,.04,.56h-.34c-.02-.12-.03-.27-.03-.41h-.01c-.2,.33-.48,.47-.88,.47-.44,0-.86-.25-.86-.73,0-.81,.96-.87,1.55-.87h.18Zm-.18,.29c-.36,0-1.16,.03-1.16,.53,0,.33,.3,.46,.59,.46,.51,0,.76-.36,.76-.81v-.18h-.18Z"/>
    <path class="uuid-eb90da44-7577-4c59-9b94-8793effc2c8c" d="M106.45,14.99c0-.22-.01-.42-.02-.78h.35v.46h.01c.1-.27,.36-.53,.8-.53,.1,0,.19,.01,.26,.03l-.07,.35s-.11-.03-.2-.03c-.53,0-.77,.46-.77,.8v1.41h-.35v-1.72Z"/>
    <path class="uuid-eb90da44-7577-4c59-9b94-8793effc2c8c" d="M109.92,14.8c-.12-.18-.35-.33-.62-.33-.58-.01-.94,.42-.94,.99s.36,1,.94,.99c.28,0,.51-.15,.62-.33l.29,.22c-.25,.29-.58,.43-.91,.43-.82,.01-1.32-.56-1.32-1.31s.51-1.32,1.32-1.31c.34,0,.67,.14,.91,.43l-.29,.22Z"/>
    <path class="uuid-eb90da44-7577-4c59-9b94-8793effc2c8c" d="M110.67,12.67h.35v1.94h.01c.15-.27,.51-.46,.84-.46,.64,0,.94,.36,.94,.98v1.59h-.35v-1.38c0-.56-.15-.86-.68-.86-.07,0-.76,.05-.76,.96v1.28h-.35v-4.04Z"/>
    <path class="uuid-eb90da44-7577-4c59-9b94-8793effc2c8c" d="M116.41,14.53h-.72v1.47c0,.37,.14,.45,.36,.45,.12,0,.26-.04,.36-.1l.02,.33c-.13,.06-.3,.09-.48,.09-.27,0-.62-.12-.62-.67v-1.58h-.53v-.32h.53v-.7h.35v.7h.72v.32Z"/>
    <path class="uuid-eb90da44-7577-4c59-9b94-8793effc2c8c" d="M116.93,14.99c0-.22-.01-.42-.02-.78h.35v.46h.01c.1-.27,.36-.53,.8-.53,.1,0,.19,.01,.26,.03l-.07,.35s-.11-.03-.2-.03c-.53,0-.77,.46-.77,.8v1.41h-.35v-1.72Z"/>
    <path class="uuid-eb90da44-7577-4c59-9b94-8793effc2c8c" d="M120.27,15.18v-.06c0-.43-.21-.65-.64-.65-.29,0-.55,.1-.76,.29l-.21-.25c.23-.23,.59-.36,1.06-.36s.91,.28,.91,.89v1.12c0,.19,.02,.43,.04,.56h-.34c-.02-.12-.03-.27-.03-.41h-.01c-.2,.33-.48,.47-.88,.47-.44,0-.86-.25-.86-.73,0-.81,.96-.87,1.55-.87h.18Zm-.18,.29c-.36,0-1.16,.03-1.16,.53,0,.33,.3,.46,.59,.46,.51,0,.76-.36,.76-.81v-.18h-.18Z"/>
    <path class="uuid-eb90da44-7577-4c59-9b94-8793effc2c8c" d="M121.69,13.5c-.13,0-.26-.11-.26-.26s.13-.26,.26-.26,.26,.11,.26,.26-.13,.26-.26,.26Zm.18,3.2h-.35v-2.5h.35v2.5Z"/>
    <path class="uuid-eb90da44-7577-4c59-9b94-8793effc2c8c" d="M123.05,14.21c.02,.13,.02,.27,.02,.4h.01c.15-.27,.51-.46,.84-.46,.64,0,.94,.36,.94,.98v1.59h-.35v-1.38c0-.56-.15-.86-.68-.86-.07,0-.76,.05-.76,.96v1.28h-.35v-1.95c0-.13-.02-.37-.03-.55h.36Z"/>
    <path class="uuid-eb90da44-7577-4c59-9b94-8793effc2c8c" d="M125.94,13.5c-.13,0-.26-.11-.26-.26s.13-.26,.26-.26,.26,.11,.26,.26-.13,.26-.26,.26Zm.18,3.2h-.35v-2.5h.35v2.5Z"/>
    <path class="uuid-eb90da44-7577-4c59-9b94-8793effc2c8c" d="M127.3,14.21c.02,.13,.02,.27,.02,.4h.01c.15-.27,.51-.46,.84-.46,.64,0,.94,.36,.94,.98v1.59h-.35v-1.38c0-.56-.15-.86-.68-.86-.07,0-.76,.05-.76,.96v1.28h-.35v-1.95c0-.13-.02-.37-.03-.55h.36Z"/>
    <path class="uuid-eb90da44-7577-4c59-9b94-8793effc2c8c" d="M130.13,17.21c.21,.28,.56,.46,.96,.46,.72,0,.97-.44,.97-.98v-.45h-.01c-.22,.34-.57,.47-.93,.47-.72,0-1.3-.54-1.3-1.27s.53-1.29,1.27-1.29c.3,0,.68,.09,.97,.48h.01v-.42h.35v2.48c0,.54-.22,1.3-1.34,1.3-.5,0-.88-.16-1.2-.5l.26-.28Zm.99-.82c.51,0,.97-.38,.95-.96,0-.52-.36-.96-.95-.96-.52,0-.93,.44-.93,.96s.41,.96,.93,.96Z"/>
    <path class="uuid-eb90da44-7577-4c59-9b94-8793effc2c8c" d="M134.94,13.5c-.13,0-.26-.11-.26-.26s.13-.26,.26-.26,.26,.11,.26,.26-.13,.26-.26,.26Zm.18,3.2h-.35v-2.5h.35v2.5Z"/>
    <path class="uuid-eb90da44-7577-4c59-9b94-8793effc2c8c" d="M136.3,14.21c.02,.13,.02,.27,.02,.4h.01c.15-.27,.51-.46,.84-.46,.64,0,.94,.36,.94,.98v1.59h-.35v-1.38c0-.56-.15-.86-.68-.86-.07,0-.76,.05-.76,.96v1.28h-.35v-1.95c0-.13-.02-.37-.03-.55h.36Z"/>
    <path class="uuid-eb90da44-7577-4c59-9b94-8793effc2c8c" d="M96.25,23.12h-.35v-.42h-.01c-.23,.34-.64,.48-.97,.48-.78,0-1.33-.56-1.33-1.31s.55-1.31,1.33-1.31c.33,0,.74,.14,.97,.48h.01v-1.95h.35v4.04Zm-1.34-.26c.58,0,1-.43,1-.99s-.42-.99-1-.99-.95,.43-.95,.99,.36,.99,.95,.99Z"/>
    <path class="uuid-eb90da44-7577-4c59-9b94-8793effc2c8c" d="M97.28,19.91c-.13,0-.26-.11-.26-.26s.13-.26,.26-.26,.26,.11,.26,.26-.13,.26-.26,.26Zm.18,3.2h-.35v-2.5h.35v2.5Z"/>
    <path class="uuid-eb90da44-7577-4c59-9b94-8793effc2c8c" d="M98.49,23.62c.21,.28,.56,.46,.96,.46,.72,0,.97-.44,.97-.98v-.45h-.01c-.22,.34-.57,.47-.93,.47-.72,0-1.3-.54-1.3-1.27s.53-1.29,1.27-1.29c.3,0,.68,.09,.97,.48h.01v-.42h.35v2.48c0,.54-.22,1.3-1.34,1.3-.5,0-.88-.16-1.2-.5l.26-.28Zm.99-.82c.51,0,.97-.38,.95-.96,0-.52-.36-.96-.95-.96-.52,0-.93,.44-.93,.96s.41,.96,.93,.96Z"/>
    <path class="uuid-eb90da44-7577-4c59-9b94-8793effc2c8c" d="M101.82,19.91c-.13,0-.26-.11-.26-.26s.13-.26,.26-.26,.26,.11,.26,.26-.13,.26-.26,.26Zm.18,3.2h-.35v-2.5h.35v2.5Z"/>
    <path class="uuid-eb90da44-7577-4c59-9b94-8793effc2c8c" d="M104.14,20.94h-.72v1.47c0,.37,.14,.45,.36,.45,.12,0,.26-.04,.36-.1l.02,.33c-.13,.06-.3,.09-.48,.09-.27,0-.62-.12-.62-.67v-1.58h-.53v-.32h.53v-.7h.35v.7h.72v.32Z"/>
    <path class="uuid-eb90da44-7577-4c59-9b94-8793effc2c8c" d="M106.22,21.58v-.06c0-.43-.21-.65-.64-.65-.29,0-.55,.1-.76,.29l-.21-.25c.23-.23,.59-.36,1.06-.36s.91,.28,.91,.89v1.12c0,.19,.02,.43,.04,.56h-.34c-.02-.12-.03-.27-.03-.41h-.01c-.2,.33-.48,.47-.88,.47-.44,0-.86-.25-.86-.73,0-.81,.96-.87,1.55-.87h.18Zm-.18,.29c-.36,0-1.16,.03-1.16,.53,0,.33,.3,.46,.59,.46,.51,0,.76-.36,.76-.81v-.18h-.18Z"/>
    <path class="uuid-eb90da44-7577-4c59-9b94-8793effc2c8c" d="M107.82,23.12h-.35v-4.04h.35v4.04Z"/>
    <path class="uuid-eb90da44-7577-4c59-9b94-8793effc2c8c" d="M109.1,23.12h-.35v-4.04h.35v4.04Z"/>
    <path class="uuid-eb90da44-7577-4c59-9b94-8793effc2c8c" d="M110.88,22.68l.76-2.07h.43l-1.25,3.15c-.15,.38-.35,.63-.79,.63-.11,0-.22,0-.33-.04l.04-.34c.08,.04,.17,.06,.27,.06,.25,0,.37-.17,.48-.45l.18-.48-1.03-2.53h.44l.78,2.07Z"/>
    <path class="uuid-eb90da44-7577-4c59-9b94-8793effc2c8c" d="M113.72,22.01h-1.37v-.35h1.37v.35Z"/>
    <path class="uuid-eb90da44-7577-4c59-9b94-8793effc2c8c" d="M114.55,21.96c.04,.5,.42,.9,.92,.9,.37,0,.66-.21,.8-.43l.27,.22c-.29,.37-.66,.53-1.07,.53-.74,0-1.29-.56-1.29-1.31s.55-1.31,1.26-1.31c.76,0,1.2,.57,1.2,1.25v.16h-2.08Zm1.7-.29c0-.48-.3-.8-.81-.8-.46,0-.88,.39-.88,.8h1.69Z"/>
    <path class="uuid-eb90da44-7577-4c59-9b94-8793effc2c8c" d="M117.61,20.62c.02,.13,.02,.27,.02,.4h.01c.15-.27,.51-.46,.84-.46,.64,0,.94,.36,.94,.98v1.59h-.35v-1.38c0-.56-.15-.86-.68-.86-.07,0-.76,.05-.76,.96v1.28h-.35v-1.95c0-.13-.02-.37-.03-.55h.36Z"/>
    <path class="uuid-eb90da44-7577-4c59-9b94-8793effc2c8c" d="M120.24,19.08h.35v1.94h.01c.15-.27,.51-.46,.84-.46,.64,0,.94,.36,.94,.98v1.59h-.35v-1.38c0-.56-.15-.86-.68-.86-.07,0-.76,.05-.76,.96v1.28h-.35v-4.04Z"/>
    <path class="uuid-eb90da44-7577-4c59-9b94-8793effc2c8c" d="M124.81,21.58v-.06c0-.43-.21-.65-.64-.65-.29,0-.55,.1-.76,.29l-.21-.25c.23-.23,.59-.36,1.06-.36s.91,.28,.91,.89v1.12c0,.19,.02,.43,.04,.56h-.34c-.02-.12-.03-.27-.03-.41h-.01c-.2,.33-.48,.47-.88,.47-.44,0-.86-.25-.86-.73,0-.81,.96-.87,1.55-.87h.18Zm-.18,.29c-.36,0-1.16,.03-1.16,.53,0,.33,.3,.46,.59,.46,.51,0,.76-.36,.76-.81v-.18h-.18Z"/>
    <path class="uuid-eb90da44-7577-4c59-9b94-8793effc2c8c" d="M126.32,20.62c.02,.13,.02,.27,.02,.4h.01c.15-.27,.51-.46,.84-.46,.64,0,.94,.36,.94,.98v1.59h-.35v-1.38c0-.56-.15-.86-.68-.86-.07,0-.76,.05-.76,.96v1.28h-.35v-1.95c0-.13-.02-.37-.03-.55h.36Z"/>
    <path class="uuid-eb90da44-7577-4c59-9b94-8793effc2c8c" d="M130.77,21.2c-.12-.18-.35-.33-.62-.33-.58-.01-.94,.42-.94,.99s.36,1,.94,.99c.28,0,.51-.15,.62-.33l.29,.22c-.25,.29-.58,.43-.91,.43-.82,.01-1.32-.56-1.32-1.31s.51-1.32,1.32-1.31c.34,0,.67,.14,.91,.43l-.29,.22Z"/>
    <path class="uuid-eb90da44-7577-4c59-9b94-8793effc2c8c" d="M131.77,21.96c.04,.5,.42,.9,.92,.9,.37,0,.66-.21,.8-.43l.27,.22c-.29,.37-.66,.53-1.07,.53-.74,0-1.29-.56-1.29-1.31s.55-1.31,1.26-1.31c.76,0,1.2,.57,1.2,1.25v.16h-2.08Zm1.7-.29c0-.48-.3-.8-.81-.8-.46,0-.88,.39-.88,.8h1.69Z"/>
    <path class="uuid-eb90da44-7577-4c59-9b94-8793effc2c8c" d="M136.99,23.12h-.35v-.42h-.01c-.23,.34-.64,.48-.97,.48-.78,0-1.33-.56-1.33-1.31s.55-1.31,1.33-1.31c.33,0,.74,.14,.97,.48h.01v-1.95h.35v4.04Zm-1.34-.26c.58,0,1-.43,1-.99s-.42-.99-1-.99-.95,.43-.95,.99,.36,.99,.95,.99Z"/>
    <path class="uuid-eb90da44-7577-4c59-9b94-8793effc2c8c" d="M139.28,21.4c0-.22-.01-.42-.02-.78h.35v.46h.01c.1-.27,.36-.53,.8-.53,.1,0,.19,.01,.26,.03l-.07,.35s-.11-.03-.2-.03c-.53,0-.77,.46-.77,.8v1.41h-.35v-1.72Z"/>
    <path class="uuid-eb90da44-7577-4c59-9b94-8793effc2c8c" d="M141.16,21.96c.04,.5,.42,.9,.92,.9,.37,0,.66-.21,.8-.43l.27,.22c-.29,.37-.66,.53-1.07,.53-.74,0-1.29-.56-1.29-1.31s.55-1.31,1.26-1.31c.76,0,1.2,.57,1.2,1.25v.16h-2.08Zm1.7-.29c0-.48-.3-.8-.81-.8-.46,0-.88,.39-.88,.8h1.69Z"/>
    <path class="uuid-eb90da44-7577-4c59-9b94-8793effc2c8c" d="M145.49,21.58v-.06c0-.43-.21-.65-.64-.65-.29,0-.55,.1-.76,.29l-.21-.25c.23-.23,.59-.36,1.06-.36s.91,.28,.91,.89v1.12c0,.19,.02,.43,.04,.56h-.34c-.02-.12-.03-.27-.03-.41h-.01c-.2,.33-.48,.47-.88,.47-.44,0-.86-.25-.86-.73,0-.81,.96-.87,1.55-.87h.18Zm-.18,.29c-.36,0-1.16,.03-1.16,.53,0,.33,.3,.46,.59,.46,.51,0,.76-.36,.76-.81v-.18h-.18Z"/>
    <path class="uuid-eb90da44-7577-4c59-9b94-8793effc2c8c" d="M147.09,23.12h-.35v-4.04h.35v4.04Z"/>
    <path class="uuid-eb90da44-7577-4c59-9b94-8793effc2c8c" d="M148.19,19.91c-.13,0-.26-.11-.26-.26s.13-.26,.26-.26,.26,.11,.26,.26-.13,.26-.26,.26Zm.18,3.2h-.35v-2.5h.35v2.5Z"/>
    <path class="uuid-eb90da44-7577-4c59-9b94-8793effc2c8c" d="M150.51,20.94h-.72v1.47c0,.37,.14,.45,.36,.45,.12,0,.26-.04,.36-.1l.02,.33c-.13,.06-.3,.09-.48,.09-.27,0-.62-.12-.62-.67v-1.58h-.53v-.32h.53v-.7h.35v.7h.72v.32Z"/>
    <path class="uuid-eb90da44-7577-4c59-9b94-8793effc2c8c" d="M151.92,22.68l.76-2.07h.43l-1.25,3.15c-.15,.38-.35,.63-.78,.63-.11,0-.22,0-.33-.04l.04-.34c.08,.04,.17,.06,.27,.06,.25,0,.37-.17,.48-.45l.18-.48-1.03-2.53h.44l.79,2.07Z"/>
  </g>
  <g id="uuid-bd09e328-96b1-4c9f-905b-20ee4d6f22d2" data-name="WBI1xl.tif">
    <g>
      <path class="uuid-eb90da44-7577-4c59-9b94-8793effc2c8c" d="M36.83,29.34c-6.8,.01-13.59,.03-20.39,.03-5.48,0-10.96-.01-16.44-.02C0,19.59,0,9.83,0,0H36.83V29.34Z"/>
      <path class="uuid-eb90da44-7577-4c59-9b94-8793effc2c8c" d="M85.76,24.01h-2.87V5.41h2.87V24.01Z"/>
      <path class="uuid-eb90da44-7577-4c59-9b94-8793effc2c8c" d="M46.12,24.02h-2.95V11.29h7.77v2.92h-4.82v9.81Z"/>
      <path class="uuid-7c7804d8-7fb0-4ef7-9ae8-cb5c5a4691a5" d="M18.58,24.32H5.53V11.5H15.6V5.41h2.98V24.32Z"/>
      <path class="uuid-7c7804d8-7fb0-4ef7-9ae8-cb5c5a4691a5" d="M24.78,19.42v-3.69h4.3v3.69h-4.3Z"/>
      <path class="uuid-eb90da44-7577-4c59-9b94-8793effc2c8c" d="M65.43,18.42h-9.82c.06,1.54,.94,2.75,2.28,3.21,1.67,.58,3.15,.08,4.49-1.56,.92,.13,1.88,.26,2.85,.4-.37,2.19-3.81,4.54-7.53,3.74-3.69-.79-5.82-4.07-5.13-7.91,.66-3.65,3.84-5.84,7.7-5.28,3.45,.5,5.62,3.53,5.15,7.41Zm-6.38-5.05c-1.83,.02-3.11,1.1-3.38,2.88h6.74c-.35-1.93-1.53-2.9-3.36-2.88Z"/>
      <path class="uuid-eb90da44-7577-4c59-9b94-8793effc2c8c" d="M76.23,16.83c.28-1.96-.24-3.03-1.55-3.39-1.73-.47-2.98,.15-3.82,1.96-.44-.05-.91-.1-1.37-.16-.43-.05-.87-.1-1.29-.15,.07-1.73,1.17-3.12,3-3.76,1.49-.52,3.02-.56,4.55-.2,2.34,.55,3.53,2.07,3.54,4.46,.01,2.77,0,8.45,0,8.45h-2.9s.05-.8,0-1.32c-1.7,1.59-3.63,1.95-5.74,1.38-1.79-.49-2.92-1.83-3-3.48-.09-1.71,.83-3.05,2.6-3.77,1.96-.8,3.94-.65,5.98-.03Zm-4.55,1.92c-.63,.31-1.07,.79-1.1,1.5-.03,.67,.32,1.18,.91,1.49,1.97,1.03,5.03-.4,4.83-2.54-1.51-.87-3.44-1.04-4.65-.45Z"/>
      <path class="uuid-eb90da44-7577-4c59-9b94-8793effc2c8c" d="M8.57,14.48c2.14,0,4.25,0,6.36,0,.21,0,.42,.03,.67,.04v6.75h-7.03v-6.8Z"/>
    </g>
  </g>
</svg>